#!OML:ASF I:\Actors\actors\Patient Classification 1\Patient 1\Session 1\Subject1.ASF
:FULLY-SPECIFIED
:DEGREES
1250
root 0.483053 17.7111 8.82542 22.5819 0.639575 -9.04327
lowerback 11.1338 3.89709 13.3257
upperback -4.29763 7.13786 -1.87002
thorax -9.15503 2.57697 -10.8168
lowerneck -16.4787 -12.2529 -8.60308
upperneck 6.64893 -16.5674 15.3221
head 6.76482 -7.24121 4.28656
rclavicle 1.86858e-014 3.08116e-014
rhumerus 63.7202 32.729 -18.1285
rradius 43.6476
rwrist 15.4623
rhand -13.8038 -42.6413
rfingers 7.12502
rthumb 12.3182 -72.2585
lclavicle 1.86858e-014 3.08116e-014
lhumerus -28.7083 -74.1247 89.64
lradius 106.952
lwrist 18.0132
lhand -21.6709 -17.5852
lfingers 7.12502
lthumb 4.72653 12.3421
rfemur -18.1798 31.7849 15.6839
rtibia 1.6119
rfoot -16.4322 -38.27
rtoes 14.1698
lfemur -14.1352 -53.9471 3.88803
ltibia -6.25612
lfoot -45.5482 60.6958
ltoes 28.8854
1251
root 0.483686 17.7116 8.83263 22.5875 0.659508 -9.05956
lowerback 11.1227 3.90961 13.2175
upperback -4.32599 7.13931 -1.86355
thorax -9.19163 2.57992 -10.7497
lowerneck -16.405 -12.2521 -8.71809
upperneck 6.66034 -16.5643 15.4273
head 6.77665 -7.23838 4.33998
rclavicle 4.33848e-014 -1.27222e-014
rhumerus 64.5966 32.9249 -18.8295
rradius 43.2308
rwrist 15.7108
rhand -13.5181 -43.4782
rfingers 7.12502
rthumb 12.5937 -73.0786
lclavicle 4.33848e-014 -1.27222e-014
lhumerus -27.9977 -73.5167 89.0578
lradius 107.001
lwrist 20.4118
lhand -18.5889 -19.4478
lfingers 7.12502
lthumb 7.70192 10.3919
rfemur -18.1578 31.8304 15.7034
rtibia 1.6073
rfoot -16.5781 -38.3036
rtoes 14.3958
lfemur -14.1405 -53.9768 3.90863
ltibia -6.2271
lfoot -45.5771 60.7021
ltoes 28.8083
1252
root 0.487351 17.712 8.83949 22.5639 0.762491 -9.03725
lowerback 11.1262 3.9055 13.2092
upperback -4.32542 7.12956 -1.90233
thorax -9.19148 2.57448 -10.7879
lowerneck -16.3555 -12.29 -8.94071
upperneck 6.62543 -16.6155 15.7392
head 6.81541 -7.25024 4.4648
rclavicle -4.8901e-014 2.18663e-014
rhumerus 65.3155 33.0469 -19.7325
rradius 42.735
rwrist 16.0386
rhand -13.2614 -44.4058
rfingers 7.12502
rthumb 12.8412 -73.9908
lclavicle -4.8901e-014 2.18663e-014
lhumerus -28.147 -73.639 89.27
lradius 107.058
lwrist 20.5371
lhand -18.9082 -18.8561
lfingers 7.12502
lthumb 7.39381 10.9947
rfemur -18.0597 31.7638 15.7268
rtibia 1.55747
rfoot -16.7371 -38.313
rtoes 14.6284
lfemur -14.1875 -54.1098 3.91572
ltibia -6.15728
lfoot -45.5648 60.7298
ltoes 28.6678
1253
root 0.48999 17.7129 8.84475 22.5437 0.870826 -9.06495
lowerback 11.1132 3.94487 13.2556
upperback -4.31214 7.183 -1.9413
thorax -9.14426 2.60162 -10.8614
lowerneck -16.2545 -12.3669 -9.24209
upperneck 6.55371 -16.7126 16.1203
head 6.85413 -7.28561 4.61852
rclavicle -7.82218e-014 1.23246e-014
rhumerus 65.7862 33.0949 -20.7826
rradius 42.2706
rwrist 16.3503
rhand -13.2171 -45.4118
rfingers 7.12502
rthumb 12.8839 -74.9941
lclavicle -7.82218e-014 1.23246e-014
lhumerus -28.0443 -73.9576 89.2911
lradius 107.042
lwrist 20.5064
lhand -19.4621 -18.4442
lfingers 7.12502
lthumb 6.85904 11.4247
rfemur -17.9695 31.7016 15.8171
rtibia 1.51619
rfoot -16.8671 -38.3189
rtoes 14.81
lfemur -14.2607 -54.2145 4.01394
ltibia -6.11554
lfoot -45.1855 60.9347
ltoes 28.194
1254
root 0.489896 17.7138 8.85016 22.5117 0.951983 -9.11583
lowerback 11.1086 3.98625 13.209
upperback -4.28252 7.22768 -1.94425
thorax -9.09953 2.63202 -10.8405
lowerneck -16.1955 -12.3994 -9.37434
upperneck 6.48024 -16.7488 16.2882
head 6.85482 -7.30066 4.68847
rclavicle 7.77248e-014 1.05356e-014
rhumerus 66.1628 33.1169 -22.0427
rradius 41.7936
rwrist 16.814
rhand -13.1591 -46.2178
rfingers 7.12502
rthumb 12.9399 -75.7966
lclavicle 7.77248e-014 1.05356e-014
lhumerus -27.7408 -74.2064 89.1295
lradius 107.006
lwrist 20.5909
lhand -19.7015 -18.3579
lfingers 7.12502
lthumb 6.62794 11.5183
rfemur -17.8666 31.6922 15.9428
rtibia 1.47765
rfoot -16.9508 -38.335
rtoes 14.9386
lfemur -14.2183 -54.3001 4.05399
ltibia -6.12261
lfoot -44.9993 61.0779
ltoes 28.0187
1255
root 0.489506 17.7139 8.85606 22.4879 1.0096 -9.14698
lowerback 11.0994 4.02926 13.1147
upperback -4.2475 7.26467 -1.96273
thorax -9.05082 2.66179 -10.8081
lowerneck -16.1789 -12.4161 -9.36542
upperneck 6.35996 -16.771 16.38
head 6.82593 -7.31072 4.71454
rclavicle 6.66923e-014 -3.18055e-015
rhumerus 66.5753 33.1475 -23.2876
rradius 41.2757
rwrist 17.2129
rhand -13.0687 -46.9068
rfingers 7.12502
rthumb 13.027 -76.48
lclavicle 6.66923e-014 -3.18055e-015
lhumerus -27.2272 -74.1896 88.73
lradius 107.04
lwrist 21.1602
lhand -18.8849 -18.625
lfingers 7.12502
lthumb 7.41621 11.2251
rfemur -17.783 31.6407 16.0388
rtibia 1.4583
rfoot -16.954 -38.3015
rtoes 14.9448
lfemur -14.1421 -54.3746 4.04557
ltibia -6.14309
lfoot -45.1582 61.0421
ltoes 28.2645
1256
root 0.489807 17.7135 8.86073 22.4958 1.07693 -9.19057
lowerback 11.0742 4.07453 13.0527
upperback -4.22778 7.30785 -1.99183
thorax -9.00391 2.6914 -10.8058
lowerneck -16.0891 -12.4396 -9.42033
upperneck 6.17026 -16.8081 16.6287
head 6.78748 -7.32551 4.80108
rclavicle -7.31528e-014 3.04141e-014
rhumerus 67.0889 33.213 -24.2998
rradius 40.8175
rwrist 17.329
rhand -12.9116 -47.8301
rfingers 7.12502
rthumb 13.1784 -77.3936
lclavicle -7.31528e-014 3.04141e-014
lhumerus -26.6425 -74.0157 88.2345
lradius 107.063
lwrist 21.9048
lhand -17.5441 -19.3394
lfingers 7.12502
lthumb 8.71035 10.4609
rfemur -17.768 31.6341 16.1028
rtibia 1.45814
rfoot -16.9967 -38.3413
rtoes 14.9785
lfemur -14.2052 -54.4215 4.17088
ltibia -6.14701
lfoot -45.0111 61.1297
ltoes 28.069
1257
root 0.49026 17.7135 8.86455 22.4882 1.14317 -9.22518
lowerback 11.1676 4.13368 13.0767
upperback -4.26586 7.39925 -2.08782
thorax -9.0614 2.72377 -10.9531
lowerneck -15.9486 -12.5213 -9.57195
upperneck 6.03387 -16.9316 16.9763
head 6.78833 -7.37783 4.92055
rclavicle 5.36719e-015 1.17283e-014
rhumerus 67.3396 33.2835 -25.675
rradius 40.2289
rwrist 17.6667
rhand -12.6277 -48.7979
rfingers 7.12502
rthumb 13.452 -78.3436
lclavicle 5.36719e-015 1.17283e-014
lhumerus -26.3364 -74.1689 87.9593
lradius 107.145
lwrist 22.127
lhand -17.1445 -19.4348
lfingers 7.12502
lthumb 9.09587 10.3491
rfemur -17.7346 31.6962 16.1494
rtibia 1.43681
rfoot -17.0719 -38.4407
rtoes 15.0518
lfemur -14.2686 -54.4742 4.28519
ltibia -6.14456
lfoot -44.7733 61.2774
ltoes 27.7166
1258
root 0.490634 17.7132 8.87025 22.4901 1.19305 -9.25667
lowerback 11.2434 4.21769 13.1423
upperback -4.30479 7.52387 -2.23118
thorax -9.08899 2.77116 -11.1792
lowerneck -15.9158 -12.6728 -9.66478
upperneck 5.98436 -17.1564 17.2364
head 6.83411 -7.47354 4.98093
rclavicle -5.59579e-014 -1.09332e-014
rhumerus 67.3981 33.2707 -27.3387
rradius 39.4825
rwrist 18.276
rhand -12.4028 -49.7135
rfingers 7.12502
rthumb 13.6688 -79.2446
lclavicle -5.59579e-014 -1.09332e-014
lhumerus -25.9993 -74.5856 87.6365
lradius 107.323
lwrist 21.8531
lhand -17.5839 -18.5774
lfingers 7.12502
lthumb 8.67191 11.2245
rfemur -17.6887 31.7519 16.1949
rtibia 1.40204
rfoot -17.1515 -38.4932
rtoes 15.1615
lfemur -14.2608 -54.5242 4.33448
ltibia -6.1593
lfoot -44.8136 61.2887
ltoes 27.7174
1259
root 0.49059 17.7129 8.87636 22.5247 1.29313 -9.32017
lowerback 11.1376 4.2644 13.0624
upperback -4.25804 7.5544 -2.23576
thorax -8.9727 2.8051 -11.1242
lowerneck -16.0162 -12.7493 -9.59519
upperneck 5.90395 -17.2613 17.265
head 6.83641 -7.51826 4.95819
rclavicle -9.44227e-015 -9.93923e-015
rhumerus 67.7801 33.2477 -28.6022
rradius 38.8119
rwrist 18.7543
rhand -12.2396 -50.7503
rfingers 7.12502
rthumb 13.8261 -80.2708
lclavicle -9.44227e-015 -9.93923e-015
lhumerus -25.4615 -74.7586 87.2122
lradius 107.369
lwrist 21.1838
lhand -18.2334 -17.7326
lfingers 7.12502
lthumb 8.04505 12.0943
rfemur -17.6702 31.6651 16.3051
rtibia 1.37781
rfoot -17.1728 -38.4639
rtoes 15.1898
lfemur -14.3254 -54.5876 4.49614
ltibia -6.17302
lfoot -44.8523 61.2918
ltoes 27.743
1260
root 0.489783 17.7151 8.88005 22.5359 1.41558 -9.38232
lowerback 11.1419 4.30663 12.881
upperback -4.22842 7.58731 -2.16221
thorax -8.96145 2.8371 -10.9408
lowerneck -16.038 -12.7958 -9.59893
upperneck 5.78146 -17.3092 17.3009
head 6.81176 -7.54311 4.96231
rclavicle -3.8763e-014 -1.70955e-014
rhumerus 68.1222 33.2727 -29.8077
rradius 38.1872
rwrist 19.0634
rhand -12.0014 -51.7254
rfingers 7.12502
rthumb 14.0557 -81.2301
lclavicle -3.8763e-014 -1.70955e-014
lhumerus -25.2388 -74.8345 87.2017
lradius 107.214
lwrist 20.3328
lhand -19.029 -17.4629
lfingers 7.12502
lthumb 7.27717 12.392
rfemur -17.6332 31.5238 16.4456
rtibia 1.35703
rfoot -17.1393 -38.4126
rtoes 15.13
lfemur -14.4057 -54.6676 4.686
ltibia -6.19722
lfoot -44.7047 61.3886
ltoes 27.5338
1261
root 0.489609 17.7191 8.8828 22.5249 1.50595 -9.40881
lowerback 11.2829 4.35152 12.7453
upperback -4.23144 7.646 -2.1666
thorax -9.04516 2.86511 -10.8953
lowerneck -16.0816 -12.8689 -9.53
upperneck 5.69374 -17.4107 17.3226
head 6.80104 -7.59006 4.9409
rclavicle 6.95746e-015 3.69739e-014
rhumerus 68.2848 33.2489 -31.2944
rradius 37.4895
rwrist 19.4308
rhand -11.7714 -52.5651
rfingers 7.12502
rthumb 14.2773 -82.0542
lclavicle 6.95746e-015 3.69739e-014
lhumerus -24.7695 -74.8347 86.8993
lradius 107.084
lwrist 20.3642
lhand -19.1318 -17.8851
lfingers 7.12502
lthumb 7.17793 11.9732
rfemur -17.5833 31.4509 16.5271
rtibia 1.34101
rfoot -17.1655 -38.3773
rtoes 15.1566
lfemur -14.4276 -54.7503 4.77071
ltibia -6.21406
lfoot -44.6409 61.4322
ltoes 27.4606
1262
root 0.49011 17.7212 8.88554 22.5311 1.60134 -9.43073
lowerback 11.326 4.39029 12.6437
upperback -4.19911 7.68266 -2.19626
thorax -9.03039 2.89109 -10.8785
lowerneck -16.0462 -12.8939 -9.55327
upperneck 5.51195 -17.4542 17.5861
head 6.77586 -7.60392 5.02338
rclavicle -3.97569e-014 1.17283e-014
rhumerus 68.508 33.1421 -32.7359
rradius 36.7417
rwrist 20.0326
rhand -11.6944 -53.4783
rfingers 7.12502
rthumb 14.3515 -82.9622
lclavicle -3.97569e-014 1.17283e-014
lhumerus -23.6561 -74.6293 85.9256
lradius 107.098
lwrist 21.4547
lhand -18.0609 -18.7122
lfingers 7.12502
lthumb 8.21157 11.1082
rfemur -17.5584 31.3396 16.592
rtibia 1.33652
rfoot -17.2191 -38.3178
rtoes 15.2522
lfemur -14.5173 -54.8333 4.88638
ltibia -6.18333
lfoot -44.6352 61.441
ltoes 27.4822
1263
root 0.490741 17.7214 8.88829 22.5459 1.72833 -9.47505
lowerback 11.3177 4.46767 12.6174
upperback -4.16851 7.77487 -2.23746
thorax -8.96256 2.94449 -10.9163
lowerneck -15.7903 -12.9159 -9.88748
upperneck 5.19924 -17.4838 18.252
head 6.74542 -7.61024 5.29246
rclavicle 8.65707e-014 -1.21259e-014
rhumerus 68.6306 32.956 -34.0752
rradius 35.9898
rwrist 20.7143
rhand -11.6611 -54.6197
rfingers 7.12502
rthumb 14.3835 -84.1014
lclavicle 8.65707e-014 -1.21259e-014
lhumerus -23.0302 -74.7526 85.4215
lradius 107.101
lwrist 21.4975
lhand -18.1393 -18.791
lfingers 7.12502
lthumb 8.13586 11.0324
rfemur -17.54 31.2921 16.668
rtibia 1.31849
rfoot -17.2633 -38.3711
rtoes 15.2902
lfemur -14.6882 -54.9256 5.09005
ltibia -6.10937
lfoot -44.575 61.4819
ltoes 27.3329
1264
root 0.491689 17.7222 8.89097 22.5437 1.90841 -9.57406
lowerback 11.3959 4.53469 12.7928
upperback -4.17418 7.89423 -2.34456
thorax -8.94718 2.98972 -11.1598
lowerneck -15.6617 -13.0003 -10.0458
upperneck 4.98939 -17.6131 18.7193
head 6.74513 -7.6622 5.44932
rclavicle -2.40529e-014 3.37934e-014
rhumerus 68.4355 32.6713 -35.8766
rradius 35.1171
rwrist 21.55
rhand -11.535 -55.7749
rfingers 7.12502
rthumb 14.5051 -85.2478
lclavicle -2.40529e-014 3.37934e-014
lhumerus -22.5509 -74.985 84.9487
lradius 107.171
lwrist 21.5568
lhand -18.0592 -18.4962
lfingers 7.12502
lthumb 8.21323 11.3241
rfemur -17.4958 31.3996 16.7932
rtibia 1.27745
rfoot -17.355 -38.5626
rtoes 15.4292
lfemur -14.8701 -55.0443 5.38494
ltibia -6.04197
lfoot -44.4502 61.5585
ltoes 27.1293
